<?xml version="1.0" encoding="UTF-8" standalone="no"?>
<svg
   xmlns:dc="http://purl.org/dc/elements/1.1/"
   xmlns:cc="http://creativecommons.org/ns#"
   xmlns:rdf="http://www.w3.org/1999/02/22-rdf-syntax-ns#"
   xmlns:svg="http://www.w3.org/2000/svg"
   xmlns="http://www.w3.org/2000/svg"
   xmlns:sodipodi="http://sodipodi.sourceforge.net/DTD/sodipodi-0.dtd"
   xmlns:inkscape="http://www.inkscape.org/namespaces/inkscape"
   width="1791.0854"
   height="432"
   viewBox="0 0 473.89134 114.3"
   version="1.1"
   id="svg839"
   inkscape:version="1.0 (4035a4fb49, 2020-05-01)"
   sodipodi:docname="title.svg">
  <defs
     id="defs833" />
  <sodipodi:namedview
     id="base"
     pagecolor="#ffffff"
     bordercolor="#666666"
     borderopacity="1.0"
     inkscape:pageopacity="0.0"
     inkscape:pageshadow="2"
     inkscape:zoom="0.42260679"
     inkscape:cx="1128.0983"
     inkscape:cy="-22.519066"
     inkscape:document-units="mm"
     inkscape:current-layer="layer1"
     inkscape:document-rotation="0"
     showgrid="true"
     units="px"
     inkscape:snap-page="true"
     inkscape:snap-object-midpoints="true"
     inkscape:snap-grids="true"
     inkscape:snap-center="true"
     inkscape:object-nodes="true"
     inkscape:snap-midpoints="true"
     inkscape:window-width="1855"
     inkscape:window-height="1026"
     inkscape:window-x="2802"
     inkscape:window-y="61"
     inkscape:window-maximized="0"
     fit-margin-top="0"
     fit-margin-left="0"
     fit-margin-right="0"
     fit-margin-bottom="0">
    <inkscape:grid
       type="xygrid"
       id="grid1404"
       spacingx="2.1166666"
       spacingy="2.1166666"
       originx="-15.874993"
       originy="-12.699999" />
  </sodipodi:namedview>
  <metadata
     id="metadata836">
    <rdf:RDF>
      <cc:Work
         rdf:about="">
        <dc:format>image/svg+xml</dc:format>
        <dc:type
           rdf:resource="http://purl.org/dc/dcmitype/StillImage" />
        <dc:title></dc:title>
      </cc:Work>
    </rdf:RDF>
  </metadata>
  <g
     inkscape:label="Layer 1"
     inkscape:groupmode="layer"
     id="layer1"
     transform="translate(-15.875003,-12.699999)">
    <rect
       transform="rotate(33.67559)"
       style="fill:#000000;fill-opacity:1;stroke:#000000;stroke-width:0;stroke-miterlimit:4;stroke-dasharray:none;stroke-opacity:1"
       id="rect1406"
       width="51.471703"
       height="102.94341"
       x="95.555885"
       y="-48.408123" />
    <rect
       transform="rotate(33.67559)"
       style="fill:#808080;fill-opacity:1;stroke:#000000;stroke-width:0;stroke-miterlimit:4;stroke-dasharray:none;stroke-opacity:1"
       id="rect1408"
       width="7.9187231"
       height="7.9187231"
       x="87.637161"
       y="-40.489399" />
    <rect
       transform="rotate(33.67559)"
       style="fill:#808080;fill-opacity:1;stroke:#000000;stroke-width:0;stroke-miterlimit:4;stroke-dasharray:none;stroke-opacity:1"
       id="rect1410"
       width="7.9187231"
       height="7.9187231"
       x="87.637169"
       y="38.697838" />
    <rect
       transform="rotate(33.67559)"
       style="fill:#808080;fill-opacity:1;stroke:#000000;stroke-width:0;stroke-miterlimit:4;stroke-dasharray:none;stroke-opacity:1"
       id="rect1412"
       width="7.9187231"
       height="7.9187231"
       x="87.637169"
       y="22.860376" />
    <rect
       transform="rotate(33.67559)"
       style="fill:#808080;fill-opacity:1;stroke:#000000;stroke-width:0;stroke-miterlimit:4;stroke-dasharray:none;stroke-opacity:1"
       id="rect1414"
       width="7.9187231"
       height="7.9187231"
       x="87.637161"
       y="-24.651953" />
    <rect
       transform="rotate(33.67559)"
       style="fill:#808080;fill-opacity:1;stroke:#000000;stroke-width:0;stroke-miterlimit:4;stroke-dasharray:none;stroke-opacity:1"
       id="rect1416"
       width="7.9187231"
       height="7.9187231"
       x="87.637161"
       y="-8.8145037" />
    <rect
       transform="rotate(33.67559)"
       style="fill:#808080;fill-opacity:1;stroke:#000000;stroke-width:0;stroke-miterlimit:4;stroke-dasharray:none;stroke-opacity:1"
       id="rect1418"
       width="7.9187231"
       height="7.9187231"
       x="87.637161"
       y="7.0229435" />
    <rect
       transform="rotate(33.67559)"
       y="-40.489399"
       x="147.02759"
       height="7.9187231"
       width="7.9187231"
       id="rect1408-1"
       style="fill:#808080;fill-opacity:1;stroke:#000000;stroke-width:0;stroke-miterlimit:4;stroke-dasharray:none;stroke-opacity:1" />
    <rect
       transform="rotate(33.67559)"
       y="38.697845"
       x="147.02759"
       height="7.9187231"
       width="7.9187231"
       id="rect1410-3"
       style="fill:#808080;fill-opacity:1;stroke:#000000;stroke-width:0;stroke-miterlimit:4;stroke-dasharray:none;stroke-opacity:1" />
    <rect
       transform="rotate(33.67559)"
       y="22.860384"
       x="147.02759"
       height="7.9187231"
       width="7.9187231"
       id="rect1412-4"
       style="fill:#808080;fill-opacity:1;stroke:#000000;stroke-width:0;stroke-miterlimit:4;stroke-dasharray:none;stroke-opacity:1" />
    <rect
       transform="rotate(33.67559)"
       y="-24.651953"
       x="147.02759"
       height="7.9187231"
       width="7.9187231"
       id="rect1414-4"
       style="fill:#808080;fill-opacity:1;stroke:#000000;stroke-width:0;stroke-miterlimit:4;stroke-dasharray:none;stroke-opacity:1" />
    <rect
       transform="rotate(33.67559)"
       y="-8.8145037"
       x="147.02759"
       height="7.9187231"
       width="7.9187231"
       id="rect1416-2"
       style="fill:#808080;fill-opacity:1;stroke:#000000;stroke-width:0;stroke-miterlimit:4;stroke-dasharray:none;stroke-opacity:1" />
    <rect
       transform="rotate(33.67559)"
       y="7.0229435"
       x="147.02759"
       height="7.9187231"
       width="7.9187231"
       id="rect1418-4"
       style="fill:#808080;fill-opacity:1;stroke:#000000;stroke-width:0;stroke-miterlimit:4;stroke-dasharray:none;stroke-opacity:1" />
    <path
       style="fill:#73cbda;fill-opacity:1;stroke:#000000;stroke-width:0;stroke-linecap:butt;stroke-linejoin:miter;stroke-miterlimit:4;stroke-dasharray:none;stroke-opacity:1"
       d="M 15.875004,25.4 H 75.141676 L 83.608342,12.7 H 15.875004 Z"
       id="path1498" />
    <path
       id="path1498-7"
       d="M 15.875004,50.799999 58.208344,50.8 66.67501,38.099999 H 15.875004 Z"
       style="fill:#73cbda;fill-opacity:1;stroke:#000000;stroke-width:0;stroke-linecap:butt;stroke-linejoin:miter;stroke-miterlimit:4;stroke-dasharray:none;stroke-opacity:1"
       sodipodi:nodetypes="ccccc" />
    <path
       id="path1498-2"
       d="M 15.875004,76.199999 H 41.27501 l 8.466666,-12.7 H 15.875004 Z"
       style="fill:#73cbda;fill-opacity:1;stroke:#000000;stroke-width:0;stroke-linecap:butt;stroke-linejoin:miter;stroke-miterlimit:4;stroke-dasharray:none;stroke-opacity:1"
       sodipodi:nodetypes="ccccc" />
    <path
       id="path1498-74"
       d="m 15.875004,101.59999 h 8.466675 L 32.80834,88.899996 H 15.875004 Z"
       style="fill:#73cbda;fill-opacity:1;stroke:#000000;stroke-width:0;stroke-linecap:butt;stroke-linejoin:miter;stroke-miterlimit:4;stroke-dasharray:none;stroke-opacity:1"
       sodipodi:nodetypes="ccccc" />
    <path
       id="path1498-4"
       d="m 15.875004,127 h 57.150004 l -19.049998,-12.7 -38.100006,-1e-5 z"
       style="fill:#73cbda;fill-opacity:1;stroke:#000000;stroke-width:0;stroke-linecap:butt;stroke-linejoin:miter;stroke-miterlimit:4;stroke-dasharray:none;stroke-opacity:1"
       sodipodi:nodetypes="ccccc" />
    <g
       transform="matrix(0.89571985,0,-0.59209834,0.89571985,57.049276,13.500956)"
       style="font-size:116.19px;line-height:1.25;font-family:Roboto;-inkscape-font-specification:Roboto;fill:#000000;fill-opacity:1;stroke-width:2.90477"
       id="text866"
       aria-label="GoROM">
      <path
         id="path868"
         style="letter-spacing:-7.9375px;fill:#000000;fill-opacity:1;stroke-width:2.90477"
         d="m 211.47038,93.965831 q -4.19827,6.01374 -11.74382,9.020609 -7.48881,2.95014 -17.47388,2.95014 -10.09855,0 -17.92776,-4.70887 -7.82921,-4.765609 -12.14095,-13.502553 -4.255,-8.736943 -4.36847,-20.253824 v -7.205141 q 0,-18.665289 8.68021,-28.934034 8.73695,-10.268745 24.50883,-10.268745 12.93522,0 20.82116,6.637807 7.88594,6.581075 9.64468,18.722022 h -10.89282 q -3.0636,-16.395952 -19.51629,-16.395952 -10.94954,0 -16.62288,7.715742 -5.61661,7.659009 -5.67334,22.239493 v 6.751274 q 0,13.899683 6.35414,22.126026 6.35414,8.16961 17.19022,8.16961 6.12721,0 10.72261,-1.361602 4.59541,-1.361602 7.60228,-4.595405 V 72.520606 h -19.11916 v -8.85041 h 29.95524 z" />
      <path
         id="path870"
         style="letter-spacing:-7.9375px;fill:#000000;fill-opacity:1;stroke-width:2.90477"
         d="m 217.26236,73.541807 q 0,-9.02061 3.51747,-16.225752 3.5742,-7.205142 9.87161,-11.119746 6.35414,-3.914605 14.46702,-3.914605 12.53808,0 20.25382,8.68021 7.77248,8.68021 7.77248,23.090494 v 0.737534 q 0,8.963877 -3.46074,16.112285 -3.40401,7.091675 -9.81488,11.063013 -6.35414,3.97134 -14.63722,3.97134 -12.48135,0 -20.25382,-8.680212 -7.71574,-8.68021 -7.71574,-22.977027 z m 10.55241,1.248135 q 0,10.212012 4.70887,16.395952 4.76561,6.183941 12.70828,6.183941 7.99941,0 12.70828,-6.240674 4.70888,-6.297407 4.70888,-17.587354 0,-10.098545 -4.82234,-16.339219 -4.76561,-6.297407 -12.70828,-6.297407 -7.77248,0 -12.53809,6.18394 -4.7656,6.183941 -4.7656,17.700821 z" />
      <path
         id="path872"
         style="letter-spacing:-7.9375px;fill:#000000;fill-opacity:1;stroke-width:2.90477"
         d="M 310.31031,71.385938 H 290.90748 V 104.80191 H 279.95794 V 22.198081 h 27.3455 q 13.95641,0 21.44522,6.35414 7.54554,6.354141 7.54554,18.495089 0,7.715742 -4.19827,13.445815 -4.14154,5.730074 -11.57361,8.566744 l 19.40282,35.061241 v 0.6808 h -11.68708 z m -19.40283,-8.907144 h 16.73636 q 8.11287,0 12.87848,-4.198271 4.82234,-4.198272 4.82234,-11.233213 0,-7.659009 -4.59541,-11.743814 -4.53867,-4.084805 -13.16215,-4.141538 h -16.67962 z" />
      <path
         id="path874"
         style="letter-spacing:-7.9375px;fill:#000000;fill-opacity:1;stroke-width:2.90477"
         d="m 407.1594,66.166465 q 0,12.140948 -4.08481,21.218292 -4.0848,9.02061 -11.57361,13.786213 -7.48881,4.76561 -17.47389,4.76561 -9.75814,0 -17.30369,-4.76561 -7.54554,-4.822336 -11.74381,-13.672746 -4.14154,-8.907144 -4.255,-20.594225 v -5.957007 q 0,-11.914013 4.14153,-21.048091 4.14154,-9.134077 11.68708,-13.956416 7.60228,-4.879072 17.36042,-4.879072 9.92835,0 17.47389,4.822339 7.60228,4.765605 11.68708,13.899682 4.08481,9.077344 4.08481,21.161558 z m -10.83608,-5.332939 q 0,-14.693951 -5.90028,-22.52316 -5.90027,-7.885943 -16.50942,-7.885943 -10.32547,0 -16.28248,7.885943 -5.90027,7.829209 -6.07047,21.785625 v 6.070474 q 0,14.240084 5.957,22.409693 6.01374,8.112876 16.50942,8.112876 10.55241,0 16.33922,-7.659009 5.78681,-7.715742 5.95701,-22.069292 z" />
      <path
         id="path876"
         style="letter-spacing:-7.9375px;fill:#000000;fill-opacity:1;stroke-width:2.90477"
         d="m 429.63102,22.198081 27.0051,67.399278 27.00509,-67.399278 h 14.12662 V 104.80191 H 486.87502 V 72.634073 l 1.0212,-34.720841 -27.11857,66.888678 h -8.33981 l -27.06183,-66.718478 1.07794,34.550641 V 104.80191 H 415.56113 V 22.198081 Z" />
    </g>
  </g>
</svg>
